<?xml version="1.0" encoding="iso-8859-1"?>
<!-- Generator: Adobe Illustrator 19.0.0, SVG Export Plug-In . SVG Version: 6.00 Build 0)  -->
<svg version="1.1" id="Layer_1" xmlns="http://www.w3.org/2000/svg" xmlns:xlink="http://www.w3.org/1999/xlink" x="0px" y="0px"
	 viewBox="0 0 511.999 511.999" style="enable-background:new 0 0 511.999 511.999;" xml:space="preserve">
<g>
	<g>
		<path d="M211.873,335.959l-29.17-29.17c-4.086-4.083-10.705-4.083-14.789,0c-4.083,4.084-4.083,10.706,0,14.789l29.17,29.17
			c2.042,2.042,4.717,3.063,7.394,3.063s5.353-1.021,7.395-3.063C215.956,346.664,215.956,340.042,211.873,335.959z"/>
	</g>
</g>
<g>
	<g>
		<path d="M172.963,368.726c-1.944-1.945-4.642-3.064-7.392-3.064c-2.751,0-5.449,1.119-7.393,3.064
			c-1.946,1.945-3.064,4.643-3.064,7.393s1.119,5.448,3.064,7.393c1.944,1.955,4.642,3.064,7.393,3.064
			c2.75,0,5.448-1.108,7.392-3.064c1.946-1.945,3.065-4.643,3.065-7.393S174.908,370.671,172.963,368.726z"/>
	</g>
</g>
<g>
	<g>
		<path d="M484.645,173.651c-22.341-31.672-65.736-39.859-98.034-19.002c8.06-8.018,12.887-12.815,13.047-12.974
			c32.367-32.368,32.367-85.032,0-117.4c-32.369-32.368-85.034-32.367-117.402,0c-32.367,32.368-32.367,85.032,0,117.401
			c13.239,13.239,13.555,35.933,12.566,48.283c-0.977,12.19-3.849,22.842-6.542,29.682c-61.348-52.489-151.874-51.764-207.327,3.687
			C35.931,268.35,25.665,338.356,55.342,397.662c5.053,12.914,2.266,40.214-38.731,97.152c-3.469,4.112-3.154,10.381,0.642,14.167
			c3.601,3.593,9.415,4.023,13.528,1.047c58.32-42.113,85.365-44.583,97.791-39.2c59.279,29.599,129.227,19.309,174.209-25.674
			c28.347-28.348,43.394-66.562,42.369-107.605c-0.888-35.552-13.767-69.53-36.578-97.229c5.582-0.766,12.887-1.141,21.107-0.358
			c10.11,0.963,28.376,4.427,37.112,16.814c14.03,19.89,36.36,30.522,59.027,30.522c14.361,0,28.861-4.271,41.461-13.158
			C499.773,251.222,507.562,206.142,484.645,173.651z M322.911,322.213l-34.372-34.372c-4.084-4.083-10.704-4.083-14.789,0
			c-4.083,4.083-4.083,10.705,0,14.789l50.053,50.054c-2.509,29.636-14.942,56.813-35.811,77.682
			c-9.137,9.137-19.49,16.594-30.644,22.325l-59.692-59.692c-4.084-4.083-10.704-4.083-14.789,0c-4.083,4.083-4.083,10.705,0,14.789
			l53.4,53.4c-12.031,3.622-24.623,5.471-37.37,5.47c-20.645-0.001-41.697-4.832-61.389-14.744c-0.35-0.176-0.706-0.33-1.065-0.463
			c-18.887-7.951-43.875-3.112-77.039,15.24c17.955-32.893,22.906-58.375,15.154-77.294c-0.102-0.251-0.215-0.499-0.337-0.74
			c-14.693-29.161-18.23-61.285-11.448-90.697l24.04,24.04c2.042,2.042,4.718,3.063,7.394,3.063s5.352-1.022,7.394-3.063
			c4.083-4.083,4.083-10.705,0-14.788l-31.487-31.488c6.046-13.82,14.618-26.594,25.629-37.605c2.71-2.71,5.524-5.26,8.422-7.665
			c0.42,0.682,0.915,1.33,1.506,1.921l31.66,31.66c2.042,2.042,4.718,3.063,7.394,3.063c2.676,0,5.352-1.021,7.394-3.063
			c4.083-4.083,4.083-10.705,0-14.789l-30.745-30.745c19.332-11.093,41.191-16.616,63.325-16.616
			c35.061,0,70.804,13.842,98.244,41.282C304.817,265.038,318.688,292.656,322.911,322.213z M315.221,196.252
			c0.175-1.534,0.325-3.075,0.449-4.623c2.206-27.533-4.408-50.526-18.624-64.742c-24.212-24.213-24.212-63.611,0-87.823
			c12.106-12.107,28.009-18.16,43.911-18.16c15.903,0,31.806,6.054,43.912,18.16c24.212,24.213,24.212,63.611,0.024,87.8
			C384.5,127.255,353.176,158.38,315.221,196.252z M455.226,257.049c-23.069,16.271-55.073,10.74-71.344-12.328
			c-10.061-14.264-28.612-23.341-52.264-25.583c35.572-25.153,64.241-45.511,64.592-45.761
			c23.071-16.271,55.074-10.74,71.345,12.328C483.825,208.773,478.294,240.778,455.226,257.049z"/>
	</g>
</g>
<g>
</g>
<g>
</g>
<g>
</g>
<g>
</g>
<g>
</g>
<g>
</g>
<g>
</g>
<g>
</g>
<g>
</g>
<g>
</g>
<g>
</g>
<g>
</g>
<g>
</g>
<g>
</g>
<g>
</g>
</svg>
