<?xml version="1.0"?>
<svg xmlns="http://www.w3.org/2000/svg" xmlns:xlink="http://www.w3.org/1999/xlink" version="1.1" id="Capa_1" x="0px" y="0px" width="512px" height="512px" viewBox="0 0 27.02 27.02" style="enable-background:new 0 0 27.02 27.02;" xml:space="preserve" class=""><g><g>
	<path d="M16.497,16.983c-0.022-0.023-0.033-0.055-0.053-0.08c-1.072,0.689-2.388,0.682-3.668-0.46   c-0.034-0.021-0.067-0.036-0.097-0.065l-3.755-3.755c-0.174-0.174-0.173-0.453,0-0.626c0.172-0.173,0.452-0.173,0.626,0.001   l3.631,3.63l0.626-0.625l-3.631-3.631c-0.174-0.174-0.173-0.454,0-0.627c0.173-0.173,0.452-0.173,0.626,0.001l3.631,3.63   l0.626-0.627l-3.631-3.63c-0.174-0.174-0.174-0.453,0-0.626c0.173-0.173,0.453-0.174,0.626,0l3.631,3.631l0.626-0.626l-3.631-3.631   c-0.174-0.174-0.174-0.453-0.001-0.626c0.173-0.173,0.453-0.174,0.626,0l3.755,3.756c0.029,0.029,0.045,0.063,0.064,0.098   c1.142,1.28,1.149,2.597,0.461,3.668c0.025,0.021,0.058,0.029,0.08,0.053l3.774,3.773c3.178-3.069,5.998-7.137,5.527-11.678   c-0.79-7.658-9.34-7.539-13.458-3.843C9.391,0.372,0.846,0.252,0.052,7.911C-0.97,17.768,13.51,25.405,13.51,25.405   s3.348-1.77,6.711-4.699L16.497,16.983z" data-original="#000000" class="active-path" data-old_color="#000000" fill="#CC5858"/>
</g></g> </svg>
