<?xml version="1.0"?>
<svg xmlns="http://www.w3.org/2000/svg" xmlns:xlink="http://www.w3.org/1999/xlink" version="1.1" id="Capa_1" x="0px" y="0px" width="512px" height="512px" viewBox="0 0 43.771 43.77" style="enable-background:new 0 0 43.771 43.77;" xml:space="preserve" class=""><g><g>
	<path d="M43.77,9.171c0-0.664,0-1.328,0-1.991c0-0.259-0.111-0.495-0.283-0.675c0.023-0.391-0.211-0.8-0.717-0.8   c-4.869,0-9.738,0-14.607,0c-7.562,0-15.126,0-22.689,0c-1.491,0-2.982,0-4.473,0c-0.293,0-0.487,0.145-0.602,0.337   C0.165,6.23,0.001,6.507,0.001,6.816c0,0.665,0,1.329,0,1.994C0.001,8.813,0,8.814,0,8.817c0,5.942,0,11.884,0,17.826   c0,3.475,0,6.948,0,10.424c0,0.135,0.032,0.254,0.077,0.365c0.007,0.02,0.018,0.034,0.026,0.053   c0.042,0.088,0.096,0.168,0.161,0.238c0.024,0.025,0.046,0.051,0.072,0.073c0.054,0.047,0.112,0.084,0.174,0.118   c0.085,0.05,0.175,0.082,0.273,0.105c0.045,0.01,0.09,0.022,0.136,0.027c0.028,0.002,0.053,0.018,0.082,0.018   c4.869,0,9.738,0,14.607,0c1.11,0,2.22,0,3.33,0c-1.114-0.315-2.162-0.916-2.92-1.783c-0.058-0.065-0.105-0.146-0.16-0.217   c-0.001,0-0.001,0-0.002,0c-3.461,0-6.923,0-10.383,0c-0.672,0-1.345,0-2.017,0l0,0c3.86-3.771,7.72-7.541,11.581-11.311   c1.055-1.029,2.109-2.061,3.164-3.091c1.06,0.717,2.119,1.435,3.178,2.151c0.006,0.004,0.012,0.006,0.017,0.008   c0.056,0.039,0.115,0.072,0.177,0.097c0.003,0.001,0.006,0.003,0.009,0.004c0.042,0.017,0.085,0.026,0.129,0.037   c0.223,0.054,0.423-0.006,0.6-0.11c0.025-0.014,0.056-0.021,0.078-0.035c0.021-0.015,0.041-0.027,0.062-0.041   c0.001,0,0.001,0,0.002-0.002c1.165-0.768,2.329-1.535,3.493-2.303c0.28,0.277,0.562,0.555,0.84,0.831   c0.334-0.616,0.654-1.238,0.955-1.871c-0.029-0.028,0.037-0.167,0.099-0.208c0.153-0.328,0.317-0.652,0.465-0.983   c0.049-0.109,0.104-0.222,0.159-0.334c-0.003-0.001-0.006-0.002-0.01-0.004c-0.912-0.44-1.707-1.212-1.965-2.179l0,0   c-1.533,1.01-3.064,2.02-4.597,3.03c-4.928-3.336-9.858-6.672-14.787-10.009c-1.25-0.846-2.499-1.691-3.749-2.538   c4.084,0,8.167,0,12.251,0c5.586,0,11.172,0,16.758,0c0.939-0.753,2.258-1.098,3.396-0.7c0.431,0.15,0.83,0.397,1.201,0.7l0,0   c0.444,0,0.891,0,1.336,0l0,0c0.873,0,1.747,0,2.621,0c-0.849,0.56-1.698,1.12-2.548,1.68c0.478,0.802,0.812,1.681,0.935,2.48   c0.063,0.412,0.095,0.821,0.104,1.228c0.785-0.519,1.572-1.038,2.358-1.556l0,0c0,4.698,0,9.396,0,14.094c0,3.06,0,6.116,0,9.174   l0,0c-2.84-2.809-5.679-5.616-8.519-8.425c-0.387,0.557-0.771,1.113-1.16,1.666c0,0,0,0,0,0.001   c2.168,2.144,4.335,4.287,6.503,6.433c0.703,0.695,1.405,1.392,2.11,2.086v0.002c-4.18,0-8.359,0-12.541,0   c-0.866,0-1.732,0-2.601,0c-0.964,0.871-2.087,1.625-3.305,1.998c5.347,0,10.692,0,16.04,0c1.49,0,2.982,0,4.474,0   c0.546,0,1-0.455,1-1c0-5.982,0-11.967,0-17.95c0-3.312,0-6.624,0-9.936C43.771,9.175,43.77,9.173,43.77,9.171z M4.187,32.557   c-0.729,0.711-1.458,1.424-2.186,2.135l0,0c0-5.817,0-11.635,0-17.451V17.24c0-2.18,0-4.359,0-6.541   c4.593,3.108,9.186,6.216,13.779,9.325c0.244,0.165,0.487,0.33,0.73,0.495c0,0,0,0,0.001,0   C12.403,24.532,8.296,28.543,4.187,32.557z M24.033,27.055c-0.418-0.172-0.836-0.344-1.254-0.514   c-0.28-0.115-0.587-0.312-0.899-0.252c-1.255,0.244-1.899,1.125-2.643,2.072c-0.94,1.199-1.879,2.418-2.645,3.738   c-0.226,0.389-0.304,0.896-0.272,1.406c-0.009,0.064-0.003,0.131,0.013,0.195c0.071,0.607,0.301,1.207,0.653,1.609   c0.253,0.289,0.555,0.533,0.876,0.752c1.817,0,3.633,0,5.451,0c0.969-0.605,1.827-1.443,2.524-2.248   c1.426-1.651,2.637-3.52,3.891-5.299c0.457-0.648,0.915-1.299,1.372-1.949c0,0,0,0-0.001-0.002c0.39-0.554,0.772-1.11,1.158-1.668   c1.284-1.861,2.542-3.742,3.702-5.672c1.035-1.725,1.91-3.692,2.066-5.72l0.002-0.001c0.045-0.586,0.039-1.178-0.053-1.771   c-0.113-0.731-0.395-1.44-0.775-2.075c-0.283,0.188-0.567,0.375-0.853,0.562c0.175,0.278,0.331,0.567,0.44,0.878   c0.356,1.016,0.354,2.076,0.156,3.12c-0.259,1.383-0.865,2.737-1.51,3.914c-0.945,1.733-2.113,3.362-3.213,5.001   c-0.232,0.347-0.473,0.687-0.707,1.03c-0.38,0.561-0.766,1.119-1.15,1.676c0,0,0,0,0.002,0.001   c-0.39,0.563-0.771,1.134-1.164,1.694c-1.293,1.846-2.549,3.762-4,5.49c-1.326,1.58-3.32,3.364-5.551,2.805   c-0.673-0.17-1.259-0.578-1.768-1.035c-0.268-0.241-0.41-0.613-0.49-0.992c1.81-1.188,3.532-2.66,4.514-4.619   c0.249-0.498,0.486-1.095,0.582-1.688c0.045,0.019,0.089,0.035,0.133,0.055c0.407,0.166,0.812,0.332,1.221,0.5   c1.547,0.635,2.826-1.104,3.588-2.191c0.406-0.582,0.778-1.187,1.131-1.804c0,0,0,0-0.001-0.001   c0.345-0.605,0.667-1.223,0.974-1.85c0.545-1.116,1.043-2.256,1.52-3.39c0.131-0.312,0.143-0.559,0.085-0.768   c-0.001,0-0.001,0.001-0.002,0.001c-0.126-0.474-0.634-0.738-1.155-0.995c0.023-0.01,0.045-0.011,0.068-0.026   c2.16-1.369,4.051-3.174,5.221-5.47c0.146-0.287,0.283-0.586,0.406-0.895l0.001-0.001c0.125-0.312,0.233-0.632,0.324-0.957   c0.127,0.164,0.237,0.338,0.347,0.514c0.284-0.187,0.568-0.374,0.852-0.562c-0.033-0.057-0.063-0.118-0.101-0.174   c-0.249-0.384-0.589-0.829-0.978-1.176c-0.029-0.037-0.062-0.067-0.104-0.091c-0.197-0.163-0.404-0.305-0.627-0.382   c-0.816-0.286-1.98,0.023-2.508,0.745c-0.268,0.364-0.533,0.729-0.801,1.093c-1.127,1.541-2.254,3.082-3.383,4.622   c-0.285,0.391-0.57,0.781-0.857,1.172c-0.1,0.136-0.109,0.27-0.07,0.385c0,0.008,0.002,0.015,0.002,0.023   c0.646-0.427,1.295-0.854,1.942-1.282c1.328-1.814,2.655-3.629,3.983-5.443c0.011-0.005,0.023-0.014,0.056-0.038   c0.187-0.142,0.394-0.256,0.614-0.334c0.311-0.11,0.568-0.05,0.8,0.084c-0.022,0.117-0.046,0.233-0.072,0.349   c-0.155,0.639-0.397,1.254-0.688,1.842c-0.119,0.241-0.252,0.473-0.387,0.702c0,0-0.002,0.001-0.003,0.001   c-1.085,1.819-2.692,3.28-4.476,4.409c-0.209,0.132-0.262,0.341-0.219,0.53c-0.309-0.206-0.537-0.454-0.549-0.817   c0.313-0.428,0.627-0.856,0.939-1.284c-0.646,0.427-1.296,0.854-1.943,1.282c-0.041,0.897,0.6,1.469,1.372,1.843   c0.312,0.151,0.685,0.27,0.943,0.508c0.084,0.076,0.063,0.122,0.034,0.227c-0.031,0.118-0.09,0.235-0.137,0.354l0.002-0.001   c-0.148,0.384-0.338,0.766-0.5,1.131c-0.227,0.506-0.459,1.018-0.701,1.528c-0.299,0.631-0.614,1.256-0.953,1.87   c0,0,0,0,0.001,0.001c-0.565,1.023-1.193,2.011-1.935,2.895c-0.324,0.389-0.662,0.729-1.166,0.875   c-0.175,0.051-0.358,0.055-0.537,0.041C24.408,27.164,24.095,27.082,24.033,27.055z M21.088,28.582   c-0.761,1.646-2.147,2.926-3.626,3.967c0.193-0.407,0.526-0.802,0.739-1.118c0.479-0.707,0.994-1.393,1.517-2.068   c0.536-0.694,1.007-1.424,1.74-1.832C21.377,27.886,21.244,28.245,21.088,28.582z M20.343,36.938   c-0.873-0.051-1.745-0.369-2.482-0.873c1.817,0,3.634,0,5.451,0C22.408,36.632,21.407,37,20.343,36.938z" data-original="#000000" class="active-path" data-old_color="#000000" fill="#FFFFFF"/>
</g></g> </svg>
